<svg xmlns="http://www.w3.org/2000/svg" viewBox="211.414 154 18.586 19.5">
  <defs>
    <style>
      .cls-1 {
        fill: #8b8b8b;
      }
    </style>
  </defs>
  <g id="send" transform="translate(211.414 118.889)">
    <g id="Group_2" data-name="Group 2" transform="translate(0 35.111)">
      <path id="Path_4" data-name="Path 4" class="cls-1" d="M17.479,42.845l-15-7.566a1.544,1.544,0,0,0-1.863.366,2.47,2.47,0,0,0-.564,2.189l1.307,6.233c.368,1.757,3.379.7,3.379.7s-2.981-1.008-3.35.749L.056,51.887A2.47,2.47,0,0,0,.62,54.076a1.544,1.544,0,0,0,1.863.366l15-7.566a2.389,2.389,0,0,0,0-4.031Zm-.417,2.808-15,7.566a.6.6,0,0,1-.732-.144.958.958,0,0,1-.222-.861l1.4-6.692H7.926a.675.675,0,0,0,0-1.324H2.515l-1.4-6.692a.958.958,0,0,1,.222-.861.6.6,0,0,1,.732-.144l15,7.566a.939.939,0,0,1,0,1.585Z" transform="translate(0 -35.111)"/>
    </g>
  </g>
</svg>
